Coordinates
version=1
nRows=23
nColumns=23
inDegrees=yes

Units are S.I. units (second, meters, Newtons, ...)
Angles are in degrees.

endheader
time	thorax_tilt	thorax_list	thorax_rotation	thorax_tx	thorax_ty	thorax_tz	sternoclavicular_r2	sternoclavicular_r3	unrotscap_r3	unrotscap_r2	acromioclavicular_r2	acromioclavicular_r3	acromioclavicular_r1	unrothum_r1	unrothum_r3	unrothum_r2	elv_angle	shoulder_elv	shoulder1_r2	shoulder_rot	elbow_flexion	pro_sup
      4.80800000	     -2.52369501	      2.84758594	      1.89598345	     -0.40917520	      1.58000082	      0.01955403	    -18.61820206	      7.88322357	     -7.88578343	     18.61655053	     -3.76906931	     30.46217300	     13.69339339	    -13.69296093	    -30.46315727	      3.76947947	     72.80866418	     76.92714079	    -72.80860312	     27.58185886	     52.20390347	     -4.21134746
      4.81200000	     -2.52741173	      2.84602681	      1.90408935	     -0.40873294	      1.58004297	      0.01939004	    -18.61787028	      7.88315945	     -7.88564911	     18.61641903	     -3.76893283	     30.46182158	     13.69324514	    -13.69279144	    -30.46278732	      3.76952051	     72.80991452	     76.92581020	    -72.80995907	     27.58513654	     52.19870092	     -4.21147871
      4.81600000	     -2.56866071	      2.92904773	      2.04688389	     -0.40946563	      1.57998431	      0.01950202	    -18.69498686	      7.91578050	     -7.91830063	     18.69341174	     -3.78462796	     30.58795521	     13.74992668	    -13.74947419	    -30.58890902	      3.78504793	     72.95791523	     77.24469893	    -72.95783269	     27.85325632	     51.01993539	     -4.29155629
      4.82000000	     -2.57109116	      2.92736468	      2.05489756	     -0.40903208	      1.58000528	      0.01933535	    -18.69477923	      7.91574049	     -7.91822282	     18.69335991	     -3.78450350	     30.58772754	     13.74984351	    -13.74935438	    -30.58865610	      3.78510610	     72.95952164	     77.24376724	    -72.95953282	     27.85655710	     51.01755876	     -4.29161466
      4.82400000	     -2.57562489	      2.92507626	      2.06566973	     -0.40859630	      1.58003410	      0.01917554	    -18.69420697	      7.91555930	     -7.91797615	     18.69283096	     -3.78439952	     30.58685306	     13.74942029	    -13.74902780	    -30.58783896	      3.78499265	     72.96139525	     77.24202993	    -72.96127584	     27.86065269	     51.01283397	     -4.29158846
      4.82800000	     -2.62194158	      2.74826474	      2.20872201	     -0.40916318	      1.57954110	      0.01905006	    -18.73600046	      7.93303185	     -7.93576312	     18.73452110	     -3.79290596	     30.65515172	     13.78020713	    -13.77962666	    -30.65613678	      3.79339412	     72.98484038	     77.41449320	    -72.98470001	     28.03751161	     50.13876810	     -4.32374819
      4.83200000	     -2.62350016	      2.75074438	      2.21882683	     -0.40874259	      1.57956098	      0.01889859	    -18.73578936	      7.93306192	     -7.93572504	     18.73450531	     -3.79281178	     30.65501689	     13.78017687	    -13.77955189	    -30.65597964	      3.79343934	     72.98780261	     77.41404677	    -72.98768324	     28.03939374	     50.13596604	     -4.32394913
      4.83600000	     -2.63253490	      3.05709485	      2.40089019	     -0.40930872	      1.58032461	      0.01918879	    -18.77860674	      7.95139694	     -7.95379695	     18.77725004	     -3.80150686	     30.72506349	     13.81159948	    -13.81106873	    -30.72590679	      3.80205381	     73.13115105	     77.59104210	    -73.13106204	     28.06614732	     49.40527488	     -4.37288544
      4.84000000	     -2.63454154	      3.05368282	      2.41006391	     -0.40885381	      1.58032050	      0.01900751	    -18.77870030	      7.95132792	     -7.95370889	     18.77703566	     -3.80160224	     30.72486493	     13.81141387	    -13.81107987	    -30.72580161	      3.80193797	     73.13260946	     77.59030155	    -73.13245950	     28.06978732	     49.40198447	     -4.37274442
      4.84400000	     -2.63968605	      3.04924219	      2.42169757	     -0.40844822	      1.58033136	      0.01886294	    -18.77794505	      7.95112227	     -7.95346850	     18.77669159	     -3.80134282	     30.72405670	     13.81109599	    -13.81068128	    -30.72498691	      3.80198870	     73.13403123	     77.58830421	    -73.13403157	     28.07454602	     49.39566206	     -4.37251798
      4.84800000	     -2.73315774	      2.98403060	      2.53010590	     -0.40849535	      1.58057622	      0.01898549	    -18.77054079	      7.94772597	     -7.95033418	     18.76861060	     -3.80015972	     30.71148221	     13.80541502	    -13.80498540	    -30.71229049	      3.80004994	     73.14286915	     77.55585172	    -73.14274498	     28.13500694	     49.27641552	     -4.36930573
      4.85200000	     -2.73109897	      2.98097352	      2.53774204	     -0.40805444	      1.58055550	      0.01881190	    -18.77075952	      7.94797310	     -7.95051372	     18.76926908	     -3.80006336	     30.71224692	     13.80582232	    -13.80530502	    -30.71308378	      3.80032603	     73.14371006	     77.55822247	    -73.14362264	     28.13604971	     49.26764588	     -4.36936913
      4.85600000	     -2.73209458	      2.97782343	      2.54755306	     -0.40763943	      1.58055001	      0.01865614	    -18.77090016	      7.94803773	     -7.95053457	     18.76935433	     -3.80009372	     30.71237503	     13.80585160	    -13.80542486	    -30.71329643	      3.80033940	     73.14462018	     77.55880509	    -73.14468598	     28.13767583	     49.25702832	     -4.36936171
      4.86000000	     -2.66796052	      2.74569446	      2.88647610	     -0.40928695	      1.57967937	      0.01825024	    -18.84347071	      7.97858441	     -7.98130826	     18.84220763	     -3.81452078	     30.83108391	     13.85934973	    -13.85870123	    -30.83213725	      3.81531649	     73.12347010	     77.85894792	    -73.12337039	     28.07383421	     47.51147250	     -4.39098922
      4.86400000	     -2.66928106	      2.74901187	      2.89756396	     -0.40888510	      1.57969335	      0.01810203	    -18.84338990	      7.97865731	     -7.98133289	     18.84220082	     -3.81456975	     30.83119580	     13.85939962	    -13.85869642	    -30.83212491	      3.81527393	     73.12693855	     77.85857522	    -73.12689458	     28.07564083	     47.50960711	     -4.39093933
      4.86800000	     -2.70834946	      3.10573840	      3.05429668	     -0.40922012	      1.58067816	      0.01845663	    -18.87668545	      7.99287359	     -7.99528608	     18.87520034	     -3.82145460	     30.88554392	     13.88367028	    -13.88317384	    -30.88628309	      3.82182366	     73.26771626	     77.99585250	    -73.26765213	     28.06565012	     47.02304049	     -4.39764058
      4.87200000	     -2.70967591	      3.10207441	      3.06318816	     -0.40882892	      1.58066709	      0.01832697	    -18.87661581	      7.99284281	     -7.99524079	     18.87517675	     -3.82137419	     30.88538165	     13.88361303	    -13.88310956	    -30.88617372	      3.82187222	     73.26922412	     77.99601097	    -73.26908332	     28.06889760	     47.01924951	     -4.39727394
      4.87600000	     -2.77235505	      3.03643245	      3.15378517	     -0.40879981	      1.58074458	      0.01840937	    -18.87435433	      7.99153852	     -7.99414101	     18.87205945	     -3.82115255	     30.88083378	     13.88149677	    -13.88106964	    -30.88157324	      3.82098538	     73.28123409	     77.98376449	    -73.28110575	     28.11974619	     46.91786310	     -4.39032667
      4.88000000	     -2.77148507	      3.03471377	      3.15904991	     -0.40840173	      1.58073427	      0.01828271	    -18.87417128	      7.99171600	     -7.99424413	     18.87244639	     -3.82105431	     30.88118453	     13.88171425	    -13.88130221	    -30.88210756	      3.82116194	     73.28174093	     77.98526650	    -73.28172638	     28.12018226	     46.91170153	     -4.39020941
      4.88400000	     -2.77317478	      3.03267634	      3.16652097	     -0.40802225	      1.58073876	      0.01815354	    -18.87411446	      7.99176659	     -7.99425439	     18.87256588	     -3.82099278	     30.88124504	     13.88175995	    -13.88135334	    -30.88223606	      3.82124022	     73.28249741	     77.98528929	    -73.28254225	     28.12107510	     46.90307481	     -4.39001316
      4.88800000	     -2.75131220	      2.85427385	      3.44199363	     -0.40928052	      1.58009149	      0.01785111	    -18.93863293	      8.01896583	     -8.02163661	     18.93716651	     -3.83399094	     30.98685402	     13.92931169	    -13.92870782	    -30.98779125	      3.83437782	     73.29952066	     78.25188790	    -73.29931567	     28.02065489	     45.46420062	     -4.36776079
      4.89200000	     -2.75330181	      2.85751197	      3.45136031	     -0.40891659	      1.58008931	      0.01774568	    -18.93838361	      8.01893565	     -8.02154163	     18.93711114	     -3.83385418	     30.98658661	     13.92920914	    -13.92858818	    -30.98755187	      3.83444948	     73.30243605	     78.25131808	    -73.30238063	     28.02210009	     45.46214493	     -4.36747956
      4.89600000	     -2.80686063	      2.90072394	      3.53366733	     -0.40885323	      1.58045764	      0.01794523	    -18.93481835	      8.01735372	     -8.02003117	     18.93327982	     -3.83325960	     30.98059697	     13.92650348	    -13.92585922	    -30.98145743	      3.83354930	     73.33441659	     78.23587914	    -73.33445830	     28.03703317	     45.41200603	     -4.36302237
